<?xml version="1.0" standalone="no"?>
<!DOCTYPE svg PUBLIC "-//W3C//DTD SVG 20010904//EN"
 "http://www.w3.org/TR/2001/REC-SVG-20010904/DTD/svg10.dtd">
<svg version="1.0" xmlns="http://www.w3.org/2000/svg"
 width="474.000000pt" height="474.000000pt" viewBox="0 0 474.000000 474.000000"
 preserveAspectRatio="xMidYMid meet">

<g transform="translate(0.000000,474.000000) scale(0.100000,-0.100000)"
fill="#000000" stroke="none">
<path d="M1750 4644 c-30 -8 -66 -22 -81 -32 -15 -9 -186 -158 -379 -331 -355
-316 -399 -363 -421 -445 -7 -27 -10 -205 -7 -536 l3 -496 35 -71 36 -71 -32
-16 c-18 -8 -196 -161 -396 -339 -383 -341 -404 -365 -427 -467 -6 -28 -7
-227 -2 -535 7 -485 7 -491 30 -543 28 -63 58 -91 377 -358 184 -154 253 -206
295 -221 47 -18 119 -24 534 -47 264 -14 504 -26 534 -26 53 0 56 2 282 160
126 88 231 160 234 160 3 0 69 -55 148 -121 214 -183 150 -166 788 -201 l537
-30 349 243 c191 134 365 259 385 277 21 19 50 59 65 90 l28 57 -3 535 c-3
596 -3 599 -70 683 -21 25 -202 193 -404 372 l-367 325 -181 0 c-178 0 -181 0
-170 20 9 18 8 20 -15 20 -21 0 -25 5 -25 28 0 51 -31 121 -76 171 -38 42 -66
59 -241 139 -109 50 -218 96 -243 101 -66 15 -149 13 -210 -5 -75 -22 -316
-131 -367 -165 -93 -64 -156 -168 -176 -294 l-12 -75 -32 0 c-33 0 -33 0 -33
48 0 104 52 223 134 310 72 77 110 100 291 181 280 124 344 121 669 -28 109
-50 217 -106 241 -125 46 -38 100 -115 111 -159 3 -16 10 -25 13 -20 4 4 4
240 1 524 l-5 516 -35 68 c-33 63 -59 89 -415 406 l-380 338 -430 0 c-346 0
-441 -3 -485 -15z m1103 -349 c85 -22 154 -61 220 -124 100 -95 147 -203 147
-334 -1 -433 -534 -641 -840 -327 -144 148 -172 383 -67 562 34 59 132 150
195 182 109 55 234 70 345 41z m-653 -2525 l0 -50 -295 0 -295 0 0 -120 0
-120 295 0 295 0 0 -215 0 -215 -345 0 -345 0 0 45 0 45 300 0 300 0 0 120 0
120 -285 0 -285 0 0 220 0 220 330 0 330 0 0 -50z m1350 -140 l0 -190 215 0
215 0 0 159 c0 87 3 173 6 190 6 29 9 31 50 31 l44 0 0 -435 0 -435 -50 0 -50
0 0 205 0 205 -215 0 -215 0 -2 -202 -3 -203 -47 -3 -48 -3 0 435 0 436 50 0
50 0 0 -190z"/>
<path d="M2679 4229 c-73 -8 -175 -56 -233 -109 -90 -83 -140 -234 -116 -353
42 -219 255 -366 471 -328 223 38 381 252 341 458 -44 220 -235 357 -463 332z"/>
</g>
</svg>
